HIERARCHY
ROOT root
{
	OFFSET 0.000000 0.000000 0.000000
	CHANNELS 6 Xposition Yposition Zposition Zrotation Yrotation Xrotation
	JOINT lhip
	{
		OFFSET 0.058581 -0.082280 -0.017664
		CHANNELS 3 Zrotation Yrotation Xrotation
		JOINT lknee
		{
			OFFSET 0.043451 -0.386469 0.008037
			CHANNELS 3 Zrotation Yrotation Xrotation
			JOINT lankle
			{
				OFFSET -0.014790 -0.426874 -0.037428
				CHANNELS 3 Zrotation Yrotation Xrotation
				JOINT ltoe
				{
					OFFSET 0.041054 -0.060286 0.122042
					CHANNELS 3 Zrotation Yrotation Xrotation
					End Site
					{
						OFFSET 0.000000 0.000000 0.000000
					}
				}
			}
		}
	}
	JOINT rhip
	{
		OFFSET -0.060310 -0.090513 -0.013543
		CHANNELS 3 Zrotation Yrotation Xrotation
		JOINT rknee
		{
			OFFSET -0.043257 -0.383688 -0.004843
			CHANNELS 3 Zrotation Yrotation Xrotation
			JOINT rankle
			{
				OFFSET 0.019056 -0.420046 -0.034562
				CHANNELS 3 Zrotation Yrotation Xrotation
				JOINT rtoe
				{
					OFFSET -0.034840 -0.062106 0.130323
					CHANNELS 3 Zrotation Yrotation Xrotation
					End Site
					{
						OFFSET 0.000000 0.000000 0.000000
					}
				}
			}
		}
	}
	JOINT lowerback
	{
		OFFSET 0.004439 0.124404 -0.038385
		CHANNELS 3 Zrotation Yrotation Xrotation
		JOINT upperback
		{
			OFFSET 0.004488 0.137956 0.026820
			CHANNELS 3 Zrotation Yrotation Xrotation
			JOINT chest
			{
				OFFSET -0.002265 0.056032 0.002855
				CHANNELS 3 Zrotation Yrotation Xrotation
				JOINT lowerneck
				{
					OFFSET -0.013390 0.211636 -0.033468
					CHANNELS 3 Zrotation Yrotation Xrotation
					JOINT upperneck
					{
						OFFSET 0.010113 0.088937 0.050410
						CHANNELS 3 Zrotation Yrotation Xrotation
						End Site
						{
							OFFSET 0.000000 0.000000 0.000000
						}
					}
				}
				JOINT lclavicle
				{
					OFFSET 0.071702 0.114000 -0.018898
					CHANNELS 3 Zrotation Yrotation Xrotation
					JOINT lshoulder
					{
						OFFSET 0.122921 0.045205 -0.019046
						CHANNELS 3 Zrotation Yrotation Xrotation
						JOINT lelbow
						{
							OFFSET 0.255332 -0.015649 -0.022946
							CHANNELS 3 Zrotation Yrotation Xrotation
							JOINT lwrist
							{
								OFFSET 0.265709 0.012698 -0.007375
								CHANNELS 3 Zrotation Yrotation Xrotation
								End Site
								{
									OFFSET 0.000000 0.000000 0.000000
								}
							}
						}
					}
				}
				JOINT rclavicle
				{
					OFFSET -0.082954 0.112472 -0.023707
					CHANNELS 3 Zrotation Yrotation Xrotation
					JOINT rshoulder
					{
						OFFSET -0.113228 0.046853 -0.008472
						CHANNELS 3 Zrotation Yrotation Xrotation
						JOINT relbow
						{
							OFFSET -0.260127 -0.014369 -0.031269
							CHANNELS 3 Zrotation Yrotation Xrotation
							JOINT rwrist
							{
								OFFSET -0.269108 0.006794 -0.006027
								CHANNELS 3 Zrotation Yrotation Xrotation
								End Site
								{
									OFFSET 0.000000 0.000000 0.000000
								}
							}
						}
					}
				}
			}
		}
	}
}
MOTION
Frames: 7
Frame Time: 0.033333
-0.407519 0.805877 0.996001 88.379341 3.408921 89.007426 7.242607 1.708435 1.683577 -6.370766 -12.360006 6.317153 11.212463 4.987072 -15.441611 0.000000 -0.000000 0.000000 -3.899669 -4.730959 2.510939 3.419280 1.226340 5.581849 3.251342 -0.923236 -7.963197 0.000000 -0.000000 0.000000 -3.781953 2.916390 1.214452 2.685974 -3.343175 5.278944 -0.675129 -1.630895 2.090284 7.251327 -15.130590 -5.326970 5.789233 -21.532683 -1.051126 -19.173357 7.473100 3.357966 -58.398659 -6.838807 9.532607 1.931846 -65.187065 37.446046 7.502665 -3.240516 5.724760 18.600270 -3.151514 1.658479 62.925361 0.774054 11.352760 -25.928171 62.735539 10.503924 -8.564592 1.927339 16.425877 
-0.405709 0.804439 0.993348 88.275489 3.336386 89.765667 7.269060 1.201381 1.292265 -6.258632 -12.938890 5.681866 10.643442 5.968480 -14.118934 0.000000 -0.000000 0.000000 -3.924188 -4.301763 1.949520 3.488392 1.779474 5.508430 3.494898 -1.832803 -7.466285 0.000000 -0.000000 0.000000 -3.517371 2.882758 0.035002 2.392399 -3.392322 5.623040 -0.657258 -1.601621 1.998565 6.783015 -15.047829 -4.658449 6.321939 -21.293667 -1.498122 -17.926727 5.525040 4.188395 -60.411286 -7.472661 9.643581 6.789584 -55.102955 33.052169 2.208107 1.145857 4.523550 17.226260 -2.197868 2.539362 64.744696 1.238702 11.194325 -23.775870 54.899674 13.637696 -4.250922 -1.534504 14.627175 
-0.405283 0.803521 0.992351 88.147405 3.328638 90.082399 7.328488 1.038476 1.012510 -6.282521 -13.239765 5.739432 10.540423 6.603472 -13.727006 0.000000 -0.000000 0.000000 -3.861464 -3.914081 1.516005 3.648272 2.043026 5.756080 3.268965 -2.394540 -7.443157 0.000000 -0.000000 0.000000 -3.377735 2.877358 -0.270251 2.306445 -3.476079 5.846433 -0.427436 -1.838915 1.632072 6.037259 -14.836716 -3.833087 6.856573 -20.600540 -2.291781 -17.663114 3.267630 4.613664 -61.561233 -7.123705 9.966729 9.716256 -44.161432 30.674789 -3.159067 5.382183 3.572420 16.861405 -0.699375 3.152090 64.979617 1.793595 10.932548 -20.840882 46.628574 16.538772 0.580811 -5.478414 12.124714 
-0.402890 0.802645 0.990668 88.065070 3.492389 89.921442 7.796391 1.631400 1.377245 -6.379789 -13.689746 5.835124 10.163596 6.698445 -13.895504 0.000000 -0.000000 0.000000 -3.642830 -4.026575 1.942999 3.820323 2.226481 5.576278 2.858254 -2.318475 -7.457316 0.000000 -0.000000 0.000000 -3.262043 2.915711 -0.100107 2.154166 -3.746594 6.337906 0.158180 -2.179467 0.791599 5.382124 -14.979667 -3.041452 7.118568 -19.438537 -3.031728 -17.092199 0.407191 4.729115 -64.214263 -5.481976 9.691698 12.766917 -29.213356 28.622412 -12.268271 10.229681 1.159067 16.499703 1.391843 3.943592 64.869825 2.499880 10.105001 -16.722115 33.239391 19.979337 10.571688 -8.152943 8.169427 
-0.402419 0.802559 0.990189 88.021062 3.516889 90.002191 7.893666 1.707884 1.321301 -6.418194 -13.631964 5.881779 10.071172 6.662358 -13.959329 0.000000 -0.000000 0.000000 -3.594108 -4.080010 1.856143 3.851442 2.136498 5.589099 2.733673 -2.124622 -7.433569 0.000000 -0.000000 0.000000 -3.204759 2.818352 -0.182732 2.072778 -3.753484 6.505871 0.240971 -2.260535 0.570121 5.366439 -14.943806 -3.002593 7.011342 -19.183336 -3.137165 -17.002465 0.260973 4.812467 -65.083328 -5.098950 9.415027 13.840034 -25.731886 28.515767 -16.036704 11.179804 0.945396 16.538762 1.765706 4.092620 65.019161 3.203799 9.756479 -15.756862 28.305903 20.855776 14.101982 -9.023173 7.063065 
-0.401625 0.802173 0.989555 87.810936 3.562238 90.055575 8.056321 1.944050 1.294548 -6.479817 -13.448162 6.087540 9.966891 6.590297 -14.158618 0.000000 -0.000000 0.000000 -3.472247 -4.066816 1.730900 3.838144 2.078313 5.732243 2.623722 -1.742590 -7.397236 0.000000 -0.000000 0.000000 -3.169690 2.640672 -0.041178 2.027987 -3.614741 6.529327 0.375723 -2.171475 0.184934 5.430597 -14.858471 -3.083319 6.612694 -19.109615 -3.208085 -17.122163 0.746974 5.213612 -65.912629 -4.180387 8.828729 14.715420 -21.507406 29.854237 -21.205466 12.354179 2.512634 16.736084 2.015907 4.391184 65.636645 3.917794 8.689859 -15.432284 20.407125 20.654307 18.176702 -9.583942 5.985471 
-0.400309 0.801135 0.989307 87.518923 3.610879 90.021478 8.224360 2.013929 1.573989 -6.512597 -13.461333 5.919475 9.938888 6.789752 -14.186658 0.000000 -0.000000 0.000000 -3.315252 -3.821416 1.756251 3.829534 2.224894 5.831671 2.537036 -1.798927 -7.475993 0.000000 -0.000000 0.000000 -3.261124 2.665010 -0.150978 2.180278 -3.276298 6.819398 0.402044 -2.067756 0.187079 5.736732 -14.483794 -3.451862 6.296264 -19.470127 -3.598306 -17.320392 1.989289 5.606741 -65.671259 -2.991773 8.752485 13.976331 -20.931798 31.839840 -22.500313 12.548496 3.855266 17.102198 1.527637 4.593916 66.369344 3.855716 8.058141 -15.933997 15.440173 19.155083 17.699554 -9.985269 5.550214 
